<?xml version="1.0" encoding="UTF-8" standalone="no"?>
<!-- Created with Inkscape (http://www.inkscape.org/) -->

<svg
   xmlns:dc="http://purl.org/dc/elements/1.1/"
   xmlns:cc="http://creativecommons.org/ns#"
   xmlns:rdf="http://www.w3.org/1999/02/22-rdf-syntax-ns#"
   xmlns:svg="http://www.w3.org/2000/svg"
   xmlns="http://www.w3.org/2000/svg"
   xmlns:sodipodi="http://sodipodi.sourceforge.net/DTD/sodipodi-0.dtd"
   xmlns:inkscape="http://www.inkscape.org/namespaces/inkscape"
   width="250"
   height="100"
   viewBox="0 0 57.546875 23.01875"
   version="1.1"
   id="svg10433"
   inkscape:version="0.92.3 (2405546, 2018-03-11)"
   sodipodi:docname="logo.svg">
  <defs
     id="defs10427" />
  <sodipodi:namedview
     id="base"
     pagecolor="#ffffff"
     bordercolor="#666666"
     borderopacity="1.0"
     inkscape:pageopacity="0.0"
     inkscape:pageshadow="2"
     inkscape:zoom="2.2476562"
     inkscape:cx="196.23219"
     inkscape:cy="150.68474"
     inkscape:document-units="mm"
     inkscape:current-layer="layer1"
     showgrid="false"
     inkscape:window-width="1920"
     inkscape:window-height="1017"
     inkscape:window-x="0"
     inkscape:window-y="1110"
     inkscape:window-maximized="1"
     units="px"
     scale-x="0.87" />
  <metadata
     id="metadata10430">
    <rdf:RDF>
      <cc:Work
         rdf:about="">
        <dc:format>image/svg+xml</dc:format>
        <dc:type
           rdf:resource="http://purl.org/dc/dcmitype/StillImage" />
        <dc:title></dc:title>
      </cc:Work>
    </rdf:RDF>
  </metadata>
  <g
     inkscape:label="Layer 1"
     inkscape:groupmode="layer"
     id="layer1"
     transform="translate(0,-270.54165)">
    <g
       id="g10380"
       style="font-style:normal;font-weight:normal;font-size:40px;line-height:1.25;font-family:sans-serif;letter-spacing:0px;word-spacing:0px;fill:#000000;fill-opacity:1;stroke:none"
       transform="matrix(0.24818681,0,0,0.48654253,-26.548164,251.11906)"
       aria-label="DEMOCRACY">
      <path
         id="path10362"
         style="font-style:normal;font-variant:normal;font-weight:900;font-stretch:normal;font-family:'GT Zirkon';-inkscape-font-specification:'GT Zirkon Heavy';letter-spacing:-1.20000005px;word-spacing:0px"
         d="m 120.03641,41.936094 h -9.16 v 28 h 9.16 c 7.36,0 12.44,-2.76 12.44,-13.96 0,-11.12 -5.08,-14.04 -12.44,-14.04 z m 0.08,23.12 h -2.2 v -18.16 h 2.2 c 3.44,0 5,2.4 5,9.04 0,6.68 -1.56,9.12 -5,9.12 z"
         inkscape:connector-curvature="0" />
      <path
         id="path10364"
         style="font-style:normal;font-variant:normal;font-weight:900;font-stretch:normal;font-family:'GT Zirkon';-inkscape-font-specification:'GT Zirkon Heavy';letter-spacing:-1.20000005px;word-spacing:0px"
         d="m 144.06016,64.936094 v -7 h 8.72 v -4.92 h -8.72 v -6.08 h 9.76 v -5 h -16.8 v 28 h 17.08 v -5 z"
         inkscape:connector-curvature="0" />
      <path
         id="path10366"
         style="font-style:normal;font-variant:normal;font-weight:900;font-stretch:normal;font-family:'GT Zirkon';-inkscape-font-specification:'GT Zirkon Heavy';letter-spacing:-1.20000005px;word-spacing:0px"
         d="m 158.39828,69.936094 h 5.64 v -10.92 c 0,-4.16 -0.2,-7.84 -0.6,-12.24 h 0.4 c 0.72,5.24 1.36,9.32 2,11.8 l 2.96,11.36 h 5.96 l 2.92,-11.28 c 0.72,-2.76 1.28,-6 2.32,-11.88 h 0.36 c -0.4,4.64 -0.56,8.36 -0.56,12.28 v 10.88 h 6.68 v -28 h -9.28 l -3.6,13.44 c -0.84,3.08 -0.92,6.2 -1,9.48 h -0.4 c -0.04,-2.56 -0.28,-6.4 -1.04,-9.48 l -3.48,-13.44 h -9.28 z"
         inkscape:connector-curvature="0" />
      <path
         id="path10368"
         style="font-style:normal;font-variant:normal;font-weight:900;font-stretch:normal;font-family:'GT Zirkon';-inkscape-font-specification:'GT Zirkon Heavy';letter-spacing:-1.20000005px;word-spacing:0px"
         d="m 191.03266,55.936094 c 0,9.8 3.92,14.56 11.84,14.56 7.96,0 11.88,-4.76 11.88,-14.56 0,-9.8 -3.92,-14.56 -11.88,-14.56 -7.92,0 -11.84,4.76 -11.84,14.56 z m 7.32,0 c 0,-6.88 1.24,-9.44 4.52,-9.44 3.32,0 4.56,2.56 4.56,9.44 0,6.88 -1.24,9.44 -4.56,9.44 -3.28,0 -4.52,-2.56 -4.52,-9.44 z"
         inkscape:connector-curvature="0" />
      <path
         id="path10370"
         style="font-style:normal;font-variant:normal;font-weight:900;font-stretch:normal;font-family:'GT Zirkon';-inkscape-font-specification:'GT Zirkon Heavy';letter-spacing:-1.20000005px;word-spacing:0px"
         d="m 229.19953,70.496094 c 6.48,0 10.24,-3.32 10.4,-9.28 l -6.92,-1.12 c -0.04,3.76 -1.08,5.24 -3.52,5.24 -2.84,0 -3.92,-2.64 -3.92,-9.48 0,-6.8 1.08,-9.4 3.96,-9.4 2.36,0 3.36,1.4 3.48,5.08 l 6.92,-1.08 c -0.16,-5.76 -3.96,-9.08 -10.32,-9.08 -7.6,0 -11.4,4.92 -11.4,14.76 0,9.68 3.68,14.36 11.32,14.36 z"
         inkscape:connector-curvature="0" />
      <path
         id="path10372"
         style="font-style:normal;font-variant:normal;font-weight:900;font-stretch:normal;font-family:'GT Zirkon';-inkscape-font-specification:'GT Zirkon Heavy';letter-spacing:-1.20000005px;word-spacing:0px"
         d="m 263.83203,63.736094 c -1.12,-6.28 -3.92,-6.76 -7.36,-7.04 l -1.76,-0.12 v -0.32 h 1.6 c 4.8,0 7.44,-2.6 7.44,-6.88 0,-5.12 -3.6,-7.44 -9.16,-7.44 h -11.2 v 28 h 7.04 v -11.16 h 1.88 c 2.68,0 3.68,1.44 4.48,6.08 0.52,2.88 0.8,4.12 1.16,5.08 h 7.4 c -0.56,-1.36 -1,-3.36 -1.52,-6.2 z m -13.4,-9.72 v -7.16 h 2.6 c 2.16,0 3.48,0.96 3.48,3.52 0,2.6 -1.32,3.64 -3.48,3.64 z"
         inkscape:connector-curvature="0" />
      <path
         id="path10374"
         style="font-style:normal;font-variant:normal;font-weight:900;font-stretch:normal;font-family:'GT Zirkon';-inkscape-font-specification:'GT Zirkon Heavy';letter-spacing:-1.20000005px;word-spacing:0px"
         d="m 283.30328,69.936094 h 7.52 l -8.12,-28 h -8.08 l -8.08,28 h 5.84 l 1.64,-5.96 h 7.64 z m -8.08,-10.36 1.16,-4.24 c 0.72,-2.76 1.12,-6 1.28,-8.68 h 0.36 c 0,2.68 0.56,5.96 1.28,8.68 l 1.16,4.24 z"
         inkscape:connector-curvature="0" />
      <path
         id="path10376"
         style="font-style:normal;font-variant:normal;font-weight:900;font-stretch:normal;font-family:'GT Zirkon';-inkscape-font-specification:'GT Zirkon Heavy';letter-spacing:-1.20000005px;word-spacing:0px"
         d="m 303.49016,70.496094 c 6.48,0 10.24,-3.32 10.4,-9.28 l -6.92,-1.12 c -0.04,3.76 -1.08,5.24 -3.52,5.24 -2.84,0 -3.92,-2.64 -3.92,-9.48 0,-6.8 1.08,-9.4 3.96,-9.4 2.36,0 3.36,1.4 3.48,5.08 l 6.92,-1.08 c -0.16,-5.76 -3.96,-9.08 -10.32,-9.08 -7.6,0 -11.4,4.92 -11.4,14.76 0,9.68 3.68,14.36 11.32,14.36 z"
         inkscape:connector-curvature="0" />
      <path
         id="path10378"
         style="font-style:normal;font-variant:normal;font-weight:900;font-stretch:normal;font-family:'GT Zirkon';-inkscape-font-specification:'GT Zirkon Heavy';letter-spacing:-1.20000005px;word-spacing:0px"
         d="m 321.57765,60.176094 v 9.76 h 7 v -9.76 l 8.56,-18.24 h -6.2 l -3.44,7.76 c -1.08,2.56 -1.4,4.32 -1.44,6.36 h -0.28 c -0.08,-2.96 -0.44,-4.36 -1.2,-6.32 l -3.16,-7.8 h -7.76 z"
         inkscape:connector-curvature="0" />
    </g>
    <g
       id="g10398"
       style="font-style:normal;font-weight:normal;font-size:10.60962677px;line-height:1.25;font-family:sans-serif;letter-spacing:0px;word-spacing:0px;fill:#000000;fill-opacity:1;stroke:none;stroke-width:0.26524064"
       transform="matrix(1.0747446,0,0,0.93045362,-134.25788,114.65461)"
       aria-label="UPGRADED">
      <path
         id="path10382"
         style="font-style:normal;font-variant:normal;font-weight:900;font-stretch:normal;font-family:'GT Zirkon';-inkscape-font-specification:'GT Zirkon Heavy';letter-spacing:-0.26524064px;stroke-width:0.26524064"
         d="m 129.6883,184.19234 v 4.77433 c 0,0.91243 -0.29707,1.44291 -1.07157,1.44291 -0.75328,0 -1.05035,-0.53048 -1.05035,-1.44291 v -4.77433 h -1.90973 v 4.56214 c 0,1.96278 0.63657,3.01313 2.69484,3.01313 2.10071,0 2.74789,-1.03974 2.74789,-3.01313 v -4.56214 z"
         inkscape:connector-curvature="0" />
      <path
         id="path10384"
         style="font-style:normal;font-variant:normal;font-weight:900;font-stretch:normal;font-family:'GT Zirkon';-inkscape-font-specification:'GT Zirkon Heavy';letter-spacing:-0.26524064px;stroke-width:0.26524064"
         d="m 132.66629,191.61908 h 1.8673 v -2.72667 h 0.65779 c 1.93096,0 2.84338,-0.92304 2.84338,-2.39778 0,-1.41108 -0.91242,-2.30229 -2.84338,-2.30229 h -2.52509 z m 1.8673,-4.02105 v -2.11131 h 0.53048 c 0.74267,0 1.03974,0.41377 1.03974,1.05035 0,0.64719 -0.29707,1.06096 -1.03974,1.06096 z"
         inkscape:connector-curvature="0" />
      <path
         id="path10386"
         style="font-style:normal;font-variant:normal;font-weight:900;font-stretch:normal;font-family:'GT Zirkon';-inkscape-font-specification:'GT Zirkon Heavy';letter-spacing:-0.26524064px;stroke-width:0.26524064"
         d="m 142.55596,186.66438 1.82485,-0.29707 c -0.1167,-1.69754 -1.28376,-2.3235 -2.79033,-2.3235 -1.97339,0 -2.99191,1.3262 -2.99191,3.89373 0,2.57814 0.76389,3.83007 2.48265,3.83007 1.15645,0 1.75059,-0.68962 1.94156,-2.2068 h 0.1061 c -0.0955,0.56231 -0.1061,0.89121 -0.1061,1.36864 v 0.68963 h 1.38986 v -3.97861 H 141.495 v 1.2095 h 1.27315 v 0.0955 c 0,1.06097 -0.49865,1.4323 -1.09279,1.4323 -0.83816,0 -1.12462,-0.68962 -1.12462,-2.50387 0,-1.78242 0.26524,-2.47204 1.12462,-2.47204 0.59414,0 0.83816,0.4456 0.8806,1.26254 z"
         inkscape:connector-curvature="0" />
      <path
         id="path10388"
         style="font-style:normal;font-variant:normal;font-weight:900;font-stretch:normal;font-family:'GT Zirkon';-inkscape-font-specification:'GT Zirkon Heavy';letter-spacing:-0.26524064px;stroke-width:0.26524064"
         d="m 151.33741,189.97459 c -0.29707,-1.66571 -1.03974,-1.79303 -1.95217,-1.8673 l -0.46682,-0.0318 v -0.0849 h 0.42438 c 1.27316,0 1.97339,-0.68963 1.97339,-1.82486 0,-1.35803 -0.95486,-1.97339 -2.4296,-1.97339 h -2.9707 v 7.42674 h 1.8673 v -2.96009 h 0.49865 c 0.71085,0 0.97609,0.38195 1.18828,1.61267 0.13792,0.76389 0.21219,1.09279 0.30768,1.34742 h 1.96278 c -0.14854,-0.36073 -0.26524,-0.89121 -0.40317,-1.64449 z m -3.55422,-2.57814 v -1.89913 h 0.68962 c 0.57292,0 0.92304,0.25464 0.92304,0.93365 0,0.68963 -0.35012,0.96548 -0.92304,0.96548 z"
         inkscape:connector-curvature="0" />
      <path
         id="path10390"
         style="font-style:normal;font-variant:normal;font-weight:900;font-stretch:normal;font-family:'GT Zirkon';-inkscape-font-specification:'GT Zirkon Heavy';letter-spacing:-0.26524064px;stroke-width:0.26524064"
         d="m 156.55503,191.61908 h 1.99461 l -2.15375,-7.42674 h -2.14315 l -2.14314,7.42674 h 1.549 l 0.435,-1.58083 h 2.02644 z m -2.14314,-2.74789 0.30767,-1.12462 c 0.19098,-0.73207 0.29707,-1.59145 0.33951,-2.30229 h 0.0955 c 0,0.71084 0.14853,1.58083 0.33951,2.30229 l 0.30768,1.12462 z"
         inkscape:connector-curvature="0" />
      <path
         id="path10392"
         style="font-style:normal;font-variant:normal;font-weight:900;font-stretch:normal;font-family:'GT Zirkon';-inkscape-font-specification:'GT Zirkon Heavy';letter-spacing:-0.26524064px;stroke-width:0.26524064"
         d="m 161.88521,184.19234 h -2.42961 v 7.42674 h 2.42961 c 1.95217,0 3.29959,-0.73206 3.29959,-3.70276 0,-2.94948 -1.34742,-3.72398 -3.29959,-3.72398 z m 0.0212,6.13237 h -0.58353 v -4.81678 h 0.58353 c 0.91242,0 1.3262,0.63658 1.3262,2.39778 0,1.77181 -0.41378,2.419 -1.3262,2.419 z"
         inkscape:connector-curvature="0" />
      <path
         id="path10394"
         style="font-style:normal;font-variant:normal;font-weight:900;font-stretch:normal;font-family:'GT Zirkon';-inkscape-font-specification:'GT Zirkon Heavy';letter-spacing:-0.26524064px;stroke-width:0.26524064"
         d="m 168.31033,190.29288 v -1.85669 h 2.3129 v -1.30498 h -2.3129 v -1.61267 h 2.58875 v -1.3262 h -4.45604 v 7.42674 h 4.53031 v -1.3262 z"
         inkscape:connector-curvature="0" />
      <path
         id="path10396"
         style="font-style:normal;font-variant:normal;font-weight:900;font-stretch:normal;font-family:'GT Zirkon';-inkscape-font-specification:'GT Zirkon Heavy';letter-spacing:-0.26524064px;stroke-width:0.26524064"
         d="m 174.59604,184.19234 h -2.42961 v 7.42674 h 2.42961 c 1.95217,0 3.29959,-0.73206 3.29959,-3.70276 0,-2.94948 -1.34742,-3.72398 -3.29959,-3.72398 z m 0.0212,6.13237 h -0.58353 v -4.81678 h 0.58353 c 0.91242,0 1.3262,0.63658 1.3262,2.39778 0,1.77181 -0.41378,2.419 -1.3262,2.419 z"
         inkscape:connector-curvature="0" />
    </g>
  </g>
</svg>
